<svg xmlns="http://www.w3.org/2000/svg" version="1.1" xmlns:xlink="http://www.w3.org/1999/xlink" width="1000" height="1000"><g clip-path="url(#SvgjsClipPath1103)"><rect width="1000" height="1000" fill="#ffffff"></rect><g transform="matrix(5,0,0,5,0,0)"><svg xmlns="http://www.w3.org/2000/svg" version="1.1" xmlns:xlink="http://www.w3.org/1999/xlink" width="200" height="200"><svg xmlns="http://www.w3.org/2000/svg" viewBox="0 0 90 90" width="200" height="200">
  <path d="M 10,80 L 10,70 L 20,70 L 20,80 L 30,80 L 40,80 L 40,70 L 30,70 L 30,60 L 40,60 L 40,50 L 30,50 L 20,50 L 20,60 L 10,60 L 10,50 L 10,40 L 20,40 L 20,30 L 10,30 L 10,20 L 10,10 L 20,10 L 20,20 L 30,20 L 30,10 L 40,10 L 40,20 L 40,30 L 30,30 L 30,40 L 40,40 L 50,40 L 60,40 L 60,30 L 50,30 L 50,20 L 50,10 L 60,10 L 60,20 L 70,20 L 70,10 L 80,10 L 80,20 L 80,30 L 70,30 L 70,40 L 80,40 L 80,50 L 80,60 L 70,60 L 70,50 L 60,50 L 50,50 L 50,60 L 60,60 L 60,70 L 50,70 L 50,80 L 60,80 L 70,80 L 70,70 L 80,70 L 80,80" fill="none" stroke="black" stroke-width="2" stroke-linecap="round" stroke-linejoin="round"></path>
</svg></svg></g></g><defs><clipPath id="SvgjsClipPath1103"><rect width="1000" height="1000" x="0" y="0" rx="150" ry="150"></rect></clipPath></defs></svg>
